<mxfile host="app.diagrams.net" modified="2023-01-08T05:49:21.793Z" agent="5.0 (Windows NT 10.0; Win64; x64) AppleWebKit/537.36 (KHTML, like Gecko) Chrome/108.0.0.0 Safari/537.36" etag="1CgTyECVLvG8TtvgrzJD" version="20.7.4" type="github">
  <diagram id="prtHgNgQTEPvFCAcTncT" name="Page-1">
    <mxGraphModel dx="995" dy="630" grid="1" gridSize="10" guides="1" tooltips="1" connect="1" arrows="1" fold="1" page="1" pageScale="1" pageWidth="827" pageHeight="1169" math="0" shadow="0">
      <root>
        <mxCell id="0" />
        <mxCell id="1" parent="0" />
        <mxCell id="mDKhFkaSFijxj3H64HYs-34" value="Incidents Process Workflow" style="swimlane;childLayout=stackLayout;resizeParent=1;resizeParentMax=0;horizontal=1;startSize=20;horizontalStack=0;html=1;" parent="1" vertex="1">
          <mxGeometry x="90" y="110" width="480" height="140" as="geometry" />
        </mxCell>
        <mxCell id="mDKhFkaSFijxj3H64HYs-35" value="Requester (Business)" style="swimlane;startSize=20;horizontal=0;html=1;fillColor=#66B2FF;fontColor=#000000;" parent="mDKhFkaSFijxj3H64HYs-34" vertex="1">
          <mxGeometry y="20" width="480" height="120" as="geometry" />
        </mxCell>
        <mxCell id="mDKhFkaSFijxj3H64HYs-51" value="" style="ellipse;html=1;shape=startState;fillColor=#000000;strokeColor=#ff0000;fontColor=#000000;" parent="mDKhFkaSFijxj3H64HYs-35" vertex="1">
          <mxGeometry x="145" width="30" height="30" as="geometry" />
        </mxCell>
        <mxCell id="mDKhFkaSFijxj3H64HYs-53" value="create incident by&lt;br&gt;mail/ teams/ service now" style="html=1;fontColor=#000000;fillColor=#FFFFFF;" parent="mDKhFkaSFijxj3H64HYs-35" vertex="1">
          <mxGeometry x="65" y="50" width="190" height="60" as="geometry" />
        </mxCell>
        <mxCell id="mDKhFkaSFijxj3H64HYs-52" value="" style="edgeStyle=orthogonalEdgeStyle;html=1;verticalAlign=bottom;endArrow=open;endSize=8;strokeColor=#ff0000;rounded=0;fontColor=#000000;" parent="mDKhFkaSFijxj3H64HYs-35" source="mDKhFkaSFijxj3H64HYs-51" target="mDKhFkaSFijxj3H64HYs-53" edge="1">
          <mxGeometry relative="1" as="geometry">
            <mxPoint x="175" y="120" as="targetPoint" />
          </mxGeometry>
        </mxCell>
        <mxCell id="mDKhFkaSFijxj3H64HYs-66" value="" style="ellipse;html=1;shape=endState;fillColor=#000000;strokeColor=#ff0000;fontColor=#000000;" parent="mDKhFkaSFijxj3H64HYs-35" vertex="1">
          <mxGeometry x="350" y="30" width="30" height="30" as="geometry" />
        </mxCell>
        <mxCell id="mDKhFkaSFijxj3H64HYs-50" value="IT (Developers)" style="swimlane;startSize=20;horizontal=0;html=1;fillColor=#d5e8d4;strokeColor=#82b366;" parent="1" vertex="1">
          <mxGeometry x="90" y="250" width="480" height="260" as="geometry" />
        </mxCell>
        <mxCell id="mDKhFkaSFijxj3H64HYs-63" value="fix incidents" style="whiteSpace=wrap;html=1;fillColor=#FFFFFF;fontColor=#000000;rounded=0;" parent="mDKhFkaSFijxj3H64HYs-50" vertex="1">
          <mxGeometry x="90" y="170" width="120" height="60" as="geometry" />
        </mxCell>
        <mxCell id="CF1uzKWFBWAw8pl0Nnj2-1" style="edgeStyle=orthogonalEdgeStyle;rounded=0;orthogonalLoop=1;jettySize=auto;html=1;fontColor=#000000;" edge="1" parent="mDKhFkaSFijxj3H64HYs-50" source="mDKhFkaSFijxj3H64HYs-57" target="mDKhFkaSFijxj3H64HYs-63">
          <mxGeometry relative="1" as="geometry" />
        </mxCell>
        <mxCell id="mDKhFkaSFijxj3H64HYs-57" value="incidents" style="strokeWidth=2;html=1;shape=mxgraph.flowchart.document2;whiteSpace=wrap;size=0.25;fontColor=#000000;fillColor=#FFFFFF;" parent="mDKhFkaSFijxj3H64HYs-50" vertex="1">
          <mxGeometry x="109" y="50" width="100" height="60" as="geometry" />
        </mxCell>
        <mxCell id="mDKhFkaSFijxj3H64HYs-56" style="edgeStyle=orthogonalEdgeStyle;rounded=0;orthogonalLoop=1;jettySize=auto;html=1;fontColor=#000000;" parent="1" source="mDKhFkaSFijxj3H64HYs-53" target="mDKhFkaSFijxj3H64HYs-57" edge="1">
          <mxGeometry relative="1" as="geometry">
            <mxPoint x="410" y="300" as="targetPoint" />
          </mxGeometry>
        </mxCell>
        <mxCell id="CF1uzKWFBWAw8pl0Nnj2-2" style="edgeStyle=orthogonalEdgeStyle;rounded=0;orthogonalLoop=1;jettySize=auto;html=1;fontColor=#000000;" edge="1" parent="1" source="mDKhFkaSFijxj3H64HYs-63" target="mDKhFkaSFijxj3H64HYs-66">
          <mxGeometry relative="1" as="geometry" />
        </mxCell>
      </root>
    </mxGraphModel>
  </diagram>
</mxfile>
